<svg xmlns="http://www.w3.org/2000/svg" viewBox="0 0 64 64" fill="none">
  <!-- Vintage Vase/Pot Design -->
  <!-- Pot base shadow -->
  <ellipse cx="32" cy="58" rx="14" ry="4" fill="rgba(62, 39, 35, 0.3)"/>
  
  <!-- Pot body -->
  <path
    d="M24 32C24 28 26 24 28 22L36 22C38 24 40 28 40 32L40 50C40 52 38 54 36 54L28 54C26 54 24 52 24 50Z"
    fill="#CD7F32"
  />
  
  <!-- Pot rim -->
  <path
    d="M28 22L36 22C38 24 38 26 36 28L28 28C26 26 26 24 28 22Z"
    fill="#5D4037"
  />
  
  <!-- Decorative band -->
  <path
    d="M28 34L36 34L36 38L28 38Z"
    fill="#5D4037"
  />
  
  <!-- Vintage ornament detail -->
  <path
    d="M30 40L34 40M32 38L32 42"
    stroke="#D4A574"
    stroke-width="1.5"
    stroke-linecap="round"
  />
  
  <!-- Handle left -->
  <path
    d="M22 36C22 36 20 32 20 28C20 26 22 24 24 24"
    stroke="#5D4037"
    stroke-width="2"
    fill="none"
    stroke-linecap="round"
  />
  
  <!-- Handle right -->
  <path
    d="M42 36C42 36 44 32 44 28C44 26 42 24 40 24"
    stroke="#5D4037"
    stroke-width="2"
    fill="none"
    stroke-linecap="round"
  />
  
  <!-- Vintage shine/highlight -->
  <path
    d="M28 26C28 26 30 28 32 28C34 28 36 26 36 26"
    stroke="rgba(255, 255, 255, 0.3)"
    stroke-width="1.5"
    stroke-linecap="round"
  />
</svg>
